<svg width="100%" height="100%"  viewBox="0 0 393 851"  fill="none" xmlns="http://www.w3.org/2000/svg" xmlns:xlink="http://www.w3.org/1999/xlink">
<g id="Android-frame">
<rect id="phone-body" opacity="0.7" width="393" height="851" rx="60" fill="#F4F4F4"/>
<rect id="phone-grill" x="149" y="30" width="100" height="8" fill="#E2E2E2"/>
<g id="Action Bar">
<rect id="action-bar" x="17" y="716" width="358" height="60" fill="white"/>
<path id="Back-btn" d="M36 746.5L59.25 733.077L59.25 759.923L36 746.5Z" fill="#D9D9D9"/>
<rect id="Quit-btn" x="331" y="728" width="32" height="32" fill="#D9D9D9"/>
<circle id="Home-btn" cx="199" cy="746" r="16" fill="#D9D9D9"/>
</g>
<g id="Task Bar">
<rect id="task-bar" x="17" y="69" width="358" height="26" fill="white"/>
<path id="12:30" d="M328.508 90V88.6328L330.43 88.3984V80.6953H328.484V79.3906L332.703 78.625V88.3984L334.625 88.6328V90H328.508ZM335.68 90V88.5078L339.367 84.5469C339.742 84.125 340.036 83.7578 340.25 83.4453C340.464 83.1328 340.615 82.849 340.703 82.5938C340.797 82.3333 340.844 82.0755 340.844 81.8203C340.844 81.3776 340.716 81.0026 340.461 80.6953C340.211 80.388 339.841 80.2344 339.352 80.2344C338.826 80.2344 338.427 80.4062 338.156 80.75C337.885 81.0885 337.75 81.5573 337.75 82.1562H335.531L335.516 82.1094C335.5 81.4219 335.646 80.8047 335.953 80.2578C336.266 79.7057 336.714 79.2682 337.297 78.9453C337.885 78.6224 338.578 78.4609 339.375 78.4609C340.156 78.4609 340.826 78.6016 341.383 78.8828C341.945 79.1589 342.378 79.5469 342.68 80.0469C342.982 80.5469 343.133 81.125 343.133 81.7812C343.133 82.2344 343.052 82.6615 342.891 83.0625C342.729 83.4583 342.477 83.8776 342.133 84.3203C341.789 84.763 341.346 85.2708 340.805 85.8438L338.594 88.2188L338.609 88.2578H341.555L341.672 87.1719H343.438V90H335.68ZM344.664 90V88H346.938V90H344.664ZM344.664 83.5547V81.5547H346.938V83.5547H344.664ZM351.844 90.1641C351.12 90.1641 350.461 90.0365 349.867 89.7812C349.273 89.526 348.802 89.1562 348.453 88.6719C348.109 88.1823 347.945 87.5911 347.961 86.8984L347.977 86.8516H350.188C350.188 87.1536 350.255 87.4219 350.391 87.6562C350.526 87.8906 350.716 88.0755 350.961 88.2109C351.211 88.3464 351.505 88.4141 351.844 88.4141C352.37 88.4141 352.784 88.2656 353.086 87.9688C353.393 87.6719 353.547 87.263 353.547 86.7422C353.547 86.2109 353.396 85.7969 353.094 85.5C352.792 85.2031 352.336 85.0547 351.727 85.0547H350.492V83.3438H351.773C352.138 83.3438 352.438 83.2812 352.672 83.1562C352.906 83.026 353.081 82.8438 353.195 82.6094C353.31 82.375 353.367 82.099 353.367 81.7812C353.367 81.3021 353.237 80.9219 352.977 80.6406C352.716 80.3594 352.339 80.2188 351.844 80.2188C351.547 80.2188 351.284 80.2786 351.055 80.3984C350.826 80.513 350.646 80.6771 350.516 80.8906C350.391 81.1042 350.328 81.3516 350.328 81.6328H348.117L348.102 81.5859C348.086 80.9818 348.234 80.4453 348.547 79.9766C348.859 79.5026 349.299 79.1328 349.867 78.8672C350.44 78.5964 351.094 78.4609 351.828 78.4609C352.979 78.4609 353.904 78.7422 354.602 79.3047C355.299 79.862 355.648 80.6536 355.648 81.6797C355.648 82.2109 355.5 82.6901 355.203 83.1172C354.911 83.5443 354.474 83.8932 353.891 84.1641C354.521 84.388 355 84.7318 355.328 85.1953C355.661 85.6589 355.828 86.1979 355.828 86.8125C355.828 87.5052 355.656 88.1016 355.312 88.6016C354.969 89.1016 354.495 89.487 353.891 89.7578C353.292 90.0286 352.609 90.1641 351.844 90.1641ZM360.82 90.1641C359.633 90.1641 358.693 89.776 358 89C357.307 88.2188 356.961 87.0755 356.961 85.5703V83.0625C356.961 81.5625 357.305 80.4219 357.992 79.6406C358.685 78.8542 359.622 78.4609 360.805 78.4609C361.982 78.4609 362.917 78.8542 363.609 79.6406C364.307 80.4219 364.656 81.5625 364.656 83.0625V85.5703C364.656 87.0755 364.31 88.2188 363.617 89C362.93 89.776 361.997 90.1641 360.82 90.1641ZM360.82 88.4141C361.331 88.4141 361.719 88.2057 361.984 87.7891C362.25 87.3724 362.383 86.7057 362.383 85.7891V82.8281C362.383 81.9219 362.247 81.2604 361.977 80.8438C361.706 80.4271 361.315 80.2188 360.805 80.2188C360.289 80.2188 359.898 80.4271 359.633 80.8438C359.367 81.2604 359.234 81.9219 359.234 82.8281V85.7891C359.234 86.7057 359.367 87.3724 359.633 87.7891C359.904 88.2057 360.299 88.4141 360.82 88.4141Z" fill="black"/>
<g id="network 1">
<path id="Vector" d="M281 85C280.735 85 280.48 85.1054 280.293 85.2929C280.105 85.4804 280 85.7348 280 86V89C280 89.2652 280.105 89.5196 280.293 89.7071C280.48 89.8946 280.735 90 281 90C281.265 90 281.52 89.8946 281.707 89.7071C281.895 89.5196 282 89.2652 282 89V86C282 85.7348 281.895 85.4804 281.707 85.2929C281.52 85.1054 281.265 85 281 85ZM285 82C284.735 82 284.48 82.1054 284.293 82.2929C284.105 82.4804 284 82.7348 284 83V89C284 89.2652 284.105 89.5196 284.293 89.7071C284.48 89.8946 284.735 90 285 90C285.265 90 285.52 89.8946 285.707 89.7071C285.895 89.5196 286 89.2652 286 89V83C286 82.7348 285.895 82.4804 285.707 82.2929C285.52 82.1054 285.265 82 285 82ZM293 74C292.735 74 292.48 74.1054 292.293 74.2929C292.105 74.4804 292 74.7348 292 75V89C292 89.2652 292.105 89.5196 292.293 89.7071C292.48 89.8946 292.735 90 293 90C293.265 90 293.52 89.8946 293.707 89.7071C293.895 89.5196 294 89.2652 294 89V75C294 74.7348 293.895 74.4804 293.707 74.2929C293.52 74.1054 293.265 74 293 74ZM289 78C288.735 78 288.48 78.1054 288.293 78.2929C288.105 78.4804 288 78.7348 288 79V89C288 89.2652 288.105 89.5196 288.293 89.7071C288.48 89.8946 288.735 90 289 90C289.265 90 289.52 89.8946 289.707 89.7071C289.895 89.5196 290 89.2652 290 89V79C290 78.7348 289.895 78.4804 289.707 78.2929C289.52 78.1054 289.265 78 289 78Z" fill="black"/>
</g>
<g id="battery 1" clip-path="url(#clip0_54_389)">
<path id="Vector_2" d="M316 74.335C316 73.595 315.405 73 314.665 73H313V71H309V73H307.335C306.595 73 306 73.595 306 74.335V78H316V74.335Z" fill="black" fill-opacity="0.3"/>
<path id="Vector_3" d="M306 78V89.665C306 89.8403 306.035 90.0139 306.102 90.1759C306.169 90.3379 306.267 90.485 306.391 90.609C306.515 90.733 306.662 90.8313 306.824 90.8984C306.986 90.9655 307.16 91 307.335 91H314.67C315.024 91 315.364 90.8593 315.614 90.609C315.864 90.3586 316.005 90.0191 316.005 89.665V78H306Z" fill="black"/>
</g>
<g id="wifi 1">
<path id="Vector_4" d="M263.5 88.7499L261.025 86.2749C261.682 85.6189 262.572 85.2505 263.5 85.2505C264.428 85.2505 265.318 85.6189 265.975 86.2749L263.5 88.7499Z" fill="black"/>
<path id="Vector_5" d="M258.904 84.154C260.123 82.9354 261.776 82.2508 263.5 82.2508C265.224 82.2508 266.877 82.9354 268.096 84.154M256.075 81.325C258.044 79.357 260.716 78.25 263.5 78.25C266.284 78.25 268.956 79.357 270.925 81.325" stroke="black" stroke-width="2" stroke-miterlimit="10"/>
</g>
</g>
<rect id="screen" x="17" y="98" width="358" height="618" fill="url(#pattern0)"/>
</g>
<defs>
<pattern id="pattern0" patternContentUnits="objectBoundingBox" width="1" height="1">
<use xlink:href="#screen_img" transform="translate(-0.61324) scale(0.00326943 0.00189394)"/>
</pattern>
<clipPath id="clip0_54_389">
<rect width="24" height="24" fill="white" transform="translate(299 69)"/>
</clipPath>
<image id="screen_img" data-name="placeholder.png" width="681" height="528" [attr.href]="androidWebImg"/>
</defs>
</svg>
