<svg width="393" height="851" viewBox="0 0 393 851" fill="none" xmlns="http://www.w3.org/2000/svg">
<rect opacity="0.7" width="393" height="851" rx="60" fill="#F4F4F4"/>
<rect x="13" y="17" width="366" height="816" rx="45" fill="#2D6733"/>
<path d="M53.5078 52.0498V50.6826L55.4297 50.4482V42.7451H53.4844V41.4404L57.7031 40.6748V50.4482L59.625 50.6826V52.0498H53.5078ZM60.6797 52.0498V50.5576L64.3672 46.5967C64.7422 46.1748 65.0365 45.8076 65.25 45.4951C65.4635 45.1826 65.6146 44.8988 65.7031 44.6436C65.7969 44.3831 65.8438 44.1253 65.8438 43.8701C65.8438 43.4274 65.7161 43.0524 65.4609 42.7451C65.2109 42.4378 64.8411 42.2842 64.3516 42.2842C63.8255 42.2842 63.4271 42.4561 63.1562 42.7998C62.8854 43.1383 62.75 43.6071 62.75 44.2061H60.5312L60.5156 44.1592C60.5 43.4717 60.6458 42.8545 60.9531 42.3076C61.2656 41.7555 61.7135 41.318 62.2969 40.9951C62.8854 40.6722 63.5781 40.5107 64.375 40.5107C65.1562 40.5107 65.8255 40.6514 66.3828 40.9326C66.9453 41.2087 67.3776 41.5967 67.6797 42.0967C67.9818 42.5967 68.1328 43.1748 68.1328 43.8311C68.1328 44.2842 68.0521 44.7113 67.8906 45.1123C67.7292 45.5081 67.4766 45.9274 67.1328 46.3701C66.7891 46.8128 66.3464 47.3206 65.8047 47.8936L63.5938 50.2686L63.6094 50.3076H66.5547L66.6719 49.2217H68.4375V52.0498H60.6797ZM69.6641 52.0498V50.0498H71.9375V52.0498H69.6641ZM69.6641 45.6045V43.6045H71.9375V45.6045H69.6641ZM76.8438 52.2139C76.1198 52.2139 75.4609 52.0863 74.8672 51.8311C74.2734 51.5758 73.8021 51.2061 73.4531 50.7217C73.1094 50.2321 72.9453 49.641 72.9609 48.9482L72.9766 48.9014H75.1875C75.1875 49.2035 75.2552 49.4717 75.3906 49.7061C75.526 49.9404 75.7161 50.1253 75.9609 50.2607C76.2109 50.3962 76.5052 50.4639 76.8438 50.4639C77.3698 50.4639 77.7839 50.3154 78.0859 50.0186C78.3932 49.7217 78.5469 49.3128 78.5469 48.792C78.5469 48.2607 78.3958 47.8467 78.0938 47.5498C77.7917 47.2529 77.3359 47.1045 76.7266 47.1045H75.4922V45.3936H76.7734C77.138 45.3936 77.4375 45.3311 77.6719 45.2061C77.9062 45.0758 78.0807 44.8936 78.1953 44.6592C78.3099 44.4248 78.3672 44.1488 78.3672 43.8311C78.3672 43.3519 78.237 42.9717 77.9766 42.6904C77.7161 42.4092 77.3385 42.2686 76.8438 42.2686C76.5469 42.2686 76.2839 42.3285 76.0547 42.4482C75.8255 42.5628 75.6458 42.7269 75.5156 42.9404C75.3906 43.154 75.3281 43.4014 75.3281 43.6826H73.1172L73.1016 43.6357C73.0859 43.0316 73.2344 42.4951 73.5469 42.0264C73.8594 41.5524 74.2995 41.1826 74.8672 40.917C75.4401 40.6462 76.0938 40.5107 76.8281 40.5107C77.9792 40.5107 78.9036 40.792 79.6016 41.3545C80.2995 41.9118 80.6484 42.7035 80.6484 43.7295C80.6484 44.2607 80.5 44.7399 80.2031 45.167C79.9115 45.5941 79.474 45.943 78.8906 46.2139C79.5208 46.4378 80 46.7816 80.3281 47.2451C80.6615 47.7087 80.8281 48.2477 80.8281 48.8623C80.8281 49.555 80.6562 50.1514 80.3125 50.6514C79.9688 51.1514 79.4948 51.5368 78.8906 51.8076C78.2917 52.0785 77.6094 52.2139 76.8438 52.2139ZM85.8203 52.2139C84.6328 52.2139 83.6927 51.8258 83 51.0498C82.3073 50.2686 81.9609 49.1253 81.9609 47.6201V45.1123C81.9609 43.6123 82.3047 42.4717 82.9922 41.6904C83.6849 40.904 84.6224 40.5107 85.8047 40.5107C86.9818 40.5107 87.9167 40.904 88.6094 41.6904C89.3073 42.4717 89.6562 43.6123 89.6562 45.1123V47.6201C89.6562 49.1253 89.3099 50.2686 88.6172 51.0498C87.9297 51.8258 86.9974 52.2139 85.8203 52.2139ZM85.8203 50.4639C86.3307 50.4639 86.7188 50.2555 86.9844 49.8389C87.25 49.4222 87.3828 48.7555 87.3828 47.8389V44.8779C87.3828 43.9717 87.2474 43.3102 86.9766 42.8936C86.7057 42.4769 86.3151 42.2686 85.8047 42.2686C85.2891 42.2686 84.8984 42.4769 84.6328 42.8936C84.3672 43.3102 84.2344 43.9717 84.2344 44.8779V47.8389C84.2344 48.7555 84.3672 49.4222 84.6328 49.8389C84.9036 50.2555 85.2995 50.4639 85.8203 50.4639Z" fill="white"/>
<path d="M265 47.9638C264.735 47.9638 264.48 48.0549 264.293 48.217C264.105 48.379 264 48.5989 264 48.8281V51.4208C264 51.65 264.105 51.8699 264.293 52.032C264.48 52.194 264.735 52.2851 265 52.2851C265.265 52.2851 265.52 52.194 265.707 52.032C265.895 51.8699 266 51.65 266 51.4208V48.8281C266 48.5989 265.895 48.379 265.707 48.217C265.52 48.0549 265.265 47.9638 265 47.9638ZM269 45.3711C268.735 45.3711 268.48 45.4621 268.293 45.6242C268.105 45.7863 268 46.0061 268 46.2353V51.4208C268 51.65 268.105 51.8699 268.293 52.032C268.48 52.194 268.735 52.2851 269 52.2851C269.265 52.2851 269.52 52.194 269.707 52.032C269.895 51.8699 270 51.65 270 51.4208V46.2353C270 46.0061 269.895 45.7863 269.707 45.6242C269.52 45.4621 269.265 45.3711 269 45.3711ZM277 38.457C276.735 38.457 276.48 38.5481 276.293 38.7102C276.105 38.8722 276 39.0921 276 39.3213V51.4208C276 51.65 276.105 51.8699 276.293 52.032C276.48 52.194 276.735 52.2851 277 52.2851C277.265 52.2851 277.52 52.194 277.707 52.032C277.895 51.8699 278 51.65 278 51.4208V39.3213C278 39.0921 277.895 38.8722 277.707 38.7102C277.52 38.5481 277.265 38.457 277 38.457V38.457ZM273 41.914C272.735 41.914 272.48 42.0051 272.293 42.1672C272.105 42.3293 272 42.5491 272 42.7783V51.4208C272 51.65 272.105 51.8699 272.293 52.032C272.48 52.194 272.735 52.2851 273 52.2851C273.265 52.2851 273.52 52.194 273.707 52.032C273.895 51.8699 274 51.65 274 51.4208V42.7783C274 42.5491 273.895 42.3293 273.707 42.1672C273.52 42.0051 273.265 41.914 273 41.914Z" fill="white"/>
<path d="M333.333 41.7084V49.7084H313.111V41.7084H333.333ZM334.889 47.7084H336.444V43.7084H334.889V40.7084C334.889 40.6112 334.852 40.5313 334.78 40.4688C334.707 40.4063 334.613 40.3751 334.5 40.3751H311.944C311.831 40.3751 311.738 40.4063 311.665 40.4688C311.592 40.5313 311.556 40.6112 311.556 40.7084V50.7084C311.556 50.8056 311.592 50.8855 311.665 50.948C311.738 51.0105 311.831 51.0417 311.944 51.0417H334.5C334.613 51.0417 334.707 51.0105 334.78 50.948C334.852 50.8855 334.889 50.8056 334.889 50.7084V47.7084V47.7084ZM338 43.7084V47.7084C338 48.0765 337.848 48.3907 337.544 48.6511C337.24 48.9115 336.874 49.0418 336.444 49.0418V50.7084C336.444 51.1668 336.254 51.5591 335.873 51.8855C335.492 52.2119 335.035 52.3751 334.5 52.3751H311.944C311.41 52.3751 310.952 52.2119 310.571 51.8855C310.19 51.5591 310 51.1668 310 50.7084V40.7084C310 40.2501 310.19 39.8577 310.571 39.5313C310.952 39.2049 311.41 39.0417 311.944 39.0417H334.5C335.035 39.0417 335.492 39.2049 335.873 39.5313C336.254 39.8577 336.444 40.2501 336.444 40.7084V42.3751C336.874 42.3751 337.24 42.5053 337.544 42.7657C337.848 43.0261 338 43.3404 338 43.7084Z" fill="white"/>
<path d="M292.5 52.0691L290.025 49.93C290.682 49.3631 291.572 49.0447 292.5 49.0447C293.428 49.0447 294.318 49.3631 294.975 49.93L292.5 52.0691Z" fill="white"/>
<path d="M287.904 48.0969C289.123 47.0437 290.776 46.4521 292.5 46.4521C294.224 46.4521 295.877 47.0437 297.096 48.0969M285.075 45.652C287.044 43.9511 289.716 42.9944 292.5 42.9944C295.284 42.9944 297.956 43.9511 299.925 45.652" stroke="white" stroke-width="2" stroke-miterlimit="10"/>
<path d="M129 42.8281C129 35.191 135.191 29 142.828 29H238.172C245.809 29 252 35.191 252 42.8281V42.8281C252 50.4651 245.809 56.6561 238.172 56.6561H142.828C135.191 56.6561 129 50.4651 129 42.8281V42.8281Z" fill="#F4F4F4"/>
</svg>
