<svg width="1920" height="1080" viewBox="0 0 1920 1080" fill="none" xmlns="http://www.w3.org/2000/svg">
<g id="windows-frame">
<rect id="window" y="140" width="1920" height="940" fill="#05E31B"/>
<g id="tabs">
<path id="tab-bar" d="M0 0H1920V70H0V0Z" fill="#C0BCBC"/>
<path id="route-bar" d="M0 70H1920V140H0V70Z" fill="#D9D9D9"/>
<path id="minimize" d="M1728 28H1758" stroke="black" stroke-width="3"/>
<g id="router-bar">
<path id="Arrow 1" d="M20.9391 103.939C20.3533 104.525 20.3533 105.475 20.9391 106.061L30.4851 115.607C31.0709 116.192 32.0206 116.192 32.6064 115.607C33.1922 115.021 33.1922 114.071 32.6064 113.485L24.1211 105L32.6064 96.5147C33.1922 95.9289 33.1922 94.9792 32.6064 94.3934C32.0206 93.8076 31.0709 93.8076 30.4851 94.3934L20.9391 103.939ZM54.5308 103.5H21.9998V106.5H54.5308V103.5Z" fill="black"/>
<path id="Arrow 2" d="M101.338 106.061C101.924 105.475 101.924 104.525 101.338 103.939L91.7923 94.3934C91.2065 93.8076 90.2567 93.8076 89.671 94.3934C89.0852 94.9792 89.0852 95.9289 89.671 96.5147L98.1562 105L89.671 113.485C89.0852 114.071 89.0852 115.021 89.671 115.607C90.2567 116.192 91.2065 116.192 91.7923 115.607L101.338 106.061ZM67.7466 106.5H100.278V103.5H67.7466V106.5Z" fill="#BCB4B4"/>
<g id="refresh 1" clip-path="url(#clip0_55_485)">
<path id="Vector" d="M146.088 97.9375C144.245 96.125 141.716 95 138.908 95C133.291 95 128.755 99.475 128.755 105C128.755 110.525 133.291 115 138.908 115C143.648 115 147.6 111.813 148.731 107.5H146.088C145.046 110.412 142.225 112.5 138.908 112.5C134.702 112.5 131.284 109.137 131.284 105C131.284 100.863 134.702 97.5 138.908 97.5C141.018 97.5 142.898 98.3625 144.271 99.725L140.179 103.75H149.074V95L146.088 97.9375Z" fill="black"/>
</g>
<rect id="Rectangle 21" x="207.02" y="85" width="1652.98" height="40" rx="20" fill="white"/>
</g>
<g id="close">
<line id="left line" y1="-1.5" x2="42.4263" y2="-1.5" transform="matrix(0.707109 0.707105 -0.707109 0.707105 1872 13.0002)" stroke="black" stroke-width="3"/>
<line id="right line" y1="-1.5" x2="42.4263" y2="-1.5" transform="matrix(0.707109 -0.707105 0.707109 0.707105 1872 43)" stroke="black" stroke-width="3"/>
</g>
<rect id="maximize" x="1801.5" y="14.5" width="27" height="27" stroke="black" stroke-width="3"/>
<g id="tab">
<rect id="Rectangle 20" x="11" y="9" width="280" height="71" rx="10" fill="#D9D9D9"/>
<g id="browser">
<path id="Vector_2" d="M38 22C30.8203 22 25 27.8203 25 35C25 42.1797 30.8203 48 38 48C45.1797 48 51 42.1797 51 35C51 27.8203 45.1797 22 38 22ZM36.6532 46.0624C34.1867 45.7671 31.9046 44.6629 30.1208 42.8792C28.0161 40.7746 26.8571 37.9764 26.8571 35C26.8571 32.3206 27.7969 29.786 29.5197 27.7713C29.5641 28.3036 29.6736 28.8743 29.6456 29.2823C29.5431 30.7694 29.3963 31.7002 30.2668 32.9549C30.6059 33.4436 30.6893 34.1441 30.8543 34.7098C31.0158 35.2631 31.6607 35.5534 32.1055 35.8943C33.0029 36.5824 33.8615 37.3821 34.8131 37.9877C35.4412 38.3874 35.8335 38.5862 35.6496 39.3526C35.5016 39.969 35.4603 40.3487 35.1414 40.8978C35.0441 41.0654 35.5087 42.1427 35.6634 42.2973C36.132 42.7659 36.597 43.1957 37.1078 43.6176C37.8998 44.2719 37.0309 45.1221 36.6532 46.0624V46.0624ZM45.8792 42.8792C44.2771 44.4812 42.273 45.5346 40.0944 45.9468C40.4032 45.1833 40.9529 44.5049 41.4629 44.1116C41.9064 43.7694 42.462 43.1111 42.6937 42.5896C42.9252 42.0689 43.2319 41.6174 43.5422 41.1386C43.9838 40.4574 42.4536 39.4301 41.9577 39.2148C40.8418 38.7303 40.0018 38.0766 39.0101 37.3788C38.3036 36.8817 36.8691 37.6384 36.0714 37.2903C34.9788 36.8132 34.0787 35.9842 33.129 35.2691C32.149 34.531 32.1964 33.6706 32.1964 32.5817C32.964 32.6101 34.056 32.3693 34.5656 32.9866C34.7264 33.1814 35.2794 34.0518 35.6495 33.7425C35.9519 33.4898 35.4254 32.4769 35.3237 32.2388C35.0109 31.5066 36.0365 31.2211 36.5614 30.7246C37.2464 30.0768 38.7158 29.0609 38.5997 28.5966C38.4836 28.1323 37.1294 26.8168 36.3341 27.0221C36.2149 27.0528 35.1656 28.1531 34.9628 28.3258C34.9682 27.9666 34.9736 27.6076 34.9791 27.2484C34.9825 27.0217 34.5561 26.7889 34.5759 26.6427C34.6259 26.2731 35.6547 25.6023 35.9107 25.3079C35.7314 25.1958 35.1195 24.6703 34.9343 24.7474C34.4859 24.9343 33.9796 25.063 33.5312 25.2498C33.5312 25.0943 33.5123 24.9482 33.4898 24.804C34.3928 24.4046 35.3452 24.1281 36.3217 23.982L37.2019 24.3358L37.8234 25.0733L38.4437 25.7129L38.9859 25.8876L39.8471 25.0754L39.625 24.4956V23.9744C41.3281 24.2217 42.9365 24.8571 44.3451 25.8369C44.0931 25.8594 43.8162 25.8965 43.5037 25.9363C43.3747 25.86 43.2091 25.8254 43.0684 25.7723C43.4766 26.6499 43.9024 27.5154 44.3349 28.3814C44.797 29.3065 45.822 30.2988 46.002 31.2753C46.2141 32.4263 46.0669 33.4717 46.183 34.8259C46.2948 36.13 47.6532 37.6117 47.6532 37.6117C47.6532 37.6117 48.2806 37.8254 48.8022 37.7509C48.3159 39.6749 47.3189 41.4393 45.8792 42.8792V42.8792Z" fill="black"/>
</g>
<path id="New tab" d="M67.4375 39V37.6328L68.6484 37.3984V29.2344L67.4375 29V27.625H68.6484H70.9609L75.9141 35.5156L75.9609 35.5078V29.2344L74.5078 29V27.625H78H79.2188V29L78 29.2344V39H75.7969L70.7344 31.1875L70.6875 31.1953V37.3984L72.1484 37.6328V39H67.4375ZM84.0703 39.1641C83.263 39.1641 82.5573 38.987 81.9531 38.6328C81.349 38.2734 80.8802 37.7812 80.5469 37.1562C80.2188 36.5312 80.0547 35.8177 80.0547 35.0156V34.7031C80.0547 33.8646 80.2109 33.1224 80.5234 32.4766C80.8359 31.8255 81.276 31.3151 81.8438 30.9453C82.4167 30.5703 83.0911 30.3854 83.8672 30.3906C84.6328 30.3906 85.276 30.5417 85.7969 30.8438C86.3177 31.1458 86.7135 31.5807 86.9844 32.1484C87.2552 32.7161 87.3906 33.4036 87.3906 34.2109V35.4531H82.4219L82.4062 35.5C82.4375 35.8698 82.5286 36.2005 82.6797 36.4922C82.8359 36.7786 83.0547 37.0052 83.3359 37.1719C83.6172 37.3333 83.9583 37.4141 84.3594 37.4141C84.776 37.4141 85.1641 37.362 85.5234 37.2578C85.888 37.1484 86.2422 36.9896 86.5859 36.7812L87.2031 38.1875C86.8542 38.4688 86.4141 38.7031 85.8828 38.8906C85.3568 39.0729 84.7526 39.1641 84.0703 39.1641ZM82.4375 33.9453H85.2578V33.7422C85.2578 33.3984 85.2109 33.1042 85.1172 32.8594C85.0286 32.6094 84.8828 32.4167 84.6797 32.2812C84.4818 32.1458 84.224 32.0781 83.9062 32.0781C83.6042 32.0781 83.349 32.1589 83.1406 32.3203C82.9323 32.4766 82.7682 32.6927 82.6484 32.9688C82.5339 33.2448 82.4557 33.5573 82.4141 33.9062L82.4375 33.9453ZM91.2109 39L89.2422 32.1094L88.2109 31.9219V30.5469H92.2969V31.9141L91.4062 32.0859L92.1875 35.375L92.3438 36.0234H92.3906L92.6016 35.375L94.3359 30.5469H95.8672L97.5469 35.4375L97.7656 36.125H97.8125L98.0156 35.4375L98.9375 32.0938L97.9531 31.9141V30.5469H101.953V31.9219L100.969 32.1094L98.8203 39H96.8984L95.3516 34.8125L95.0781 33.8828H95.0312L94.7578 34.8203L93.2344 39H91.2109ZM109.922 39.1641C109.135 39.1641 108.529 38.9479 108.102 38.5156C107.68 38.0833 107.469 37.3984 107.469 36.4609V32.1484H106.305V30.5469H107.469V28.4766H109.742V30.5469H111.297V32.1484H109.742V36.4531C109.742 36.7812 109.81 37.0156 109.945 37.1562C110.086 37.2969 110.276 37.3672 110.516 37.3672C110.646 37.3672 110.781 37.3594 110.922 37.3438C111.068 37.3229 111.193 37.3021 111.297 37.2812L111.492 38.9297C111.258 38.9974 111.003 39.0521 110.727 39.0938C110.456 39.1406 110.188 39.1641 109.922 39.1641ZM115.18 39.1641C114.341 39.1641 113.674 38.9401 113.18 38.4922C112.685 38.0391 112.438 37.4245 112.438 36.6484C112.438 36.1172 112.581 35.651 112.867 35.25C113.159 34.849 113.586 34.5339 114.148 34.3047C114.716 34.0755 115.414 33.9609 116.242 33.9609H117.359V33.3359C117.359 32.9297 117.24 32.6016 117 32.3516C116.766 32.0964 116.411 31.9688 115.938 31.9688C115.693 31.9688 115.474 32 115.281 32.0625C115.089 32.1198 114.911 32.2031 114.75 32.3125L114.57 33.4297H112.93L112.898 31.2344C113.341 30.9844 113.82 30.7812 114.336 30.625C114.852 30.4688 115.427 30.3906 116.062 30.3906C117.167 30.3906 118.039 30.6484 118.68 31.1641C119.32 31.6745 119.641 32.4062 119.641 33.3594V36.8438C119.641 36.9583 119.641 37.0729 119.641 37.1875C119.646 37.2969 119.656 37.4036 119.672 37.5078L120.555 37.6328V39H117.727C117.669 38.8542 117.612 38.6979 117.555 38.5312C117.497 38.3646 117.456 38.1979 117.43 38.0312C117.159 38.375 116.839 38.651 116.469 38.8594C116.104 39.0625 115.674 39.1641 115.18 39.1641ZM115.789 37.4766C116.107 37.4766 116.409 37.4062 116.695 37.2656C116.982 37.1198 117.203 36.9297 117.359 36.6953V35.3594H116.234C115.734 35.3594 115.354 35.474 115.094 35.7031C114.839 35.9323 114.711 36.2083 114.711 36.5312C114.711 36.8333 114.805 37.0677 114.992 37.2344C115.185 37.3958 115.451 37.4766 115.789 37.4766ZM126.305 39.1641C125.779 39.1641 125.331 39.0625 124.961 38.8594C124.591 38.651 124.281 38.3516 124.031 37.9609L123.867 39H121.898V28.4219L120.688 28.1875V26.8125H124.172V31.4453C124.417 31.1068 124.716 30.8464 125.07 30.6641C125.43 30.4818 125.846 30.3906 126.32 30.3906C127.003 30.3906 127.581 30.5755 128.055 30.9453C128.534 31.3099 128.898 31.8255 129.148 32.4922C129.398 33.1589 129.523 33.9427 129.523 34.8438V35.0078C129.523 35.8464 129.398 36.5781 129.148 37.2031C128.898 37.8229 128.534 38.3047 128.055 38.6484C127.576 38.9922 126.992 39.1641 126.305 39.1641ZM125.609 37.3906C126.193 37.3906 126.612 37.1849 126.867 36.7734C127.122 36.3568 127.25 35.7682 127.25 35.0078V34.8438C127.25 34.2917 127.193 33.8177 127.078 33.4219C126.969 33.0208 126.794 32.7109 126.555 32.4922C126.32 32.2734 126.013 32.1641 125.633 32.1641C125.289 32.1641 124.995 32.2448 124.75 32.4062C124.505 32.5677 124.312 32.7865 124.172 33.0625V36.5938C124.328 36.8542 124.526 37.0521 124.766 37.1875C125.01 37.3229 125.292 37.3906 125.609 37.3906Z" fill="black"/>
</g>
<g id="close_2">
<line id="left line_2" y1="-1.5" x2="21.2131" y2="-1.5" transform="matrix(0.707109 0.707105 -0.707109 0.707105 256 30)" stroke="black" stroke-width="3"/>
<line id="right line_2" y1="-1.5" x2="21.2131" y2="-1.5" transform="matrix(0.707109 -0.707105 0.707109 0.707105 256 45)" stroke="black" stroke-width="3"/>
</g>
<g id="lock 1">
<path id="Vector_3" d="M229.5 95.5C230.222 95.5 230.937 95.6423 231.605 95.9187C232.272 96.1951 232.878 96.6002 233.389 97.1109C233.9 97.6216 234.305 98.228 234.581 98.8952C234.858 99.5625 235 100.278 235 101V105.5H224V101C224 99.5413 224.579 98.1424 225.611 97.1109C226.642 96.0795 228.041 95.5 229.5 95.5V95.5Z" stroke="black" stroke-width="2" stroke-miterlimit="10"/>
<path id="Vector_4" d="M221 104.5H238C238.53 104.5 239.039 104.711 239.414 105.086C239.789 105.461 240 105.97 240 106.5V117.5C240 118.03 239.789 118.539 239.414 118.914C239.039 119.289 238.53 119.5 238 119.5H221C220.47 119.5 219.961 119.289 219.586 118.914C219.211 118.539 219 118.03 219 117.5V106.5C219 105.97 219.211 105.461 219.586 105.086C219.961 104.711 220.47 104.5 221 104.5V104.5Z" fill="black"/>
</g>
<g id="menu 1">
<path id="Vector_5" d="M1890 99.4583C1890.4 99.4583 1890.78 99.3166 1891.11 99.0511C1891.44 98.7855 1891.7 98.4081 1891.85 97.9665C1892 97.5249 1892.04 97.039 1891.96 96.5702C1891.88 96.1014 1891.69 95.6708 1891.41 95.3328C1891.13 94.9948 1890.78 94.7647 1890.39 94.6714C1890 94.5782 1889.6 94.626 1889.23 94.809C1888.87 94.9919 1888.56 95.3016 1888.34 95.699C1888.12 96.0965 1888 96.5637 1888 97.0417C1888 97.6826 1888.21 98.2973 1888.59 98.7505C1888.96 99.2037 1889.47 99.4583 1890 99.4583ZM1890 111.542C1889.6 111.542 1889.22 111.683 1888.89 111.949C1888.56 112.214 1888.3 112.592 1888.15 113.034C1888 113.475 1887.96 113.961 1888.04 114.43C1888.12 114.899 1888.31 115.329 1888.59 115.667C1888.87 116.005 1889.22 116.235 1889.61 116.329C1890 116.422 1890.4 116.374 1890.77 116.191C1891.13 116.008 1891.44 115.698 1891.66 115.301C1891.88 114.904 1892 114.436 1892 113.958C1892 113.317 1891.79 112.703 1891.41 112.249C1891.04 111.796 1890.53 111.542 1890 111.542ZM1890 103.083C1889.6 103.083 1889.22 103.225 1888.89 103.491C1888.56 103.756 1888.3 104.134 1888.15 104.575C1888 105.017 1887.96 105.503 1888.04 105.971C1888.12 106.44 1888.31 106.871 1888.59 107.209C1888.87 107.547 1889.22 107.777 1889.61 107.87C1890 107.963 1890.4 107.916 1890.77 107.733C1891.13 107.55 1891.44 107.24 1891.66 106.843C1891.88 106.445 1892 105.978 1892 105.5C1892 104.859 1891.79 104.244 1891.41 103.791C1891.04 103.338 1890.53 103.083 1890 103.083Z" fill="black"/>
</g>
</g>
</g>
<defs>
<clipPath id="clip0_55_485">
<rect width="30.4978" height="30" fill="white" transform="translate(123.659 90)"/>
</clipPath>
</defs>
</svg>
